# xmcd
#
# Track frame offsets:
#	150
#	21651
#	37572
#	54321
#	70253
#	87692
#	103777
#	119158
#	130797
#	147912
#	167778
#	183859
#	199472
#	214783
#	232484
#	251347
#	266992
#	284652
#	302286
#	318071
#
# Disc length: 4488 seconds
#
# Revision: 0
# Processed by: cddbd v1.5.1PL2 Copyright (c) Steve Scherf et al.
# Submitted via: dBpowerAMP V4.0
#
DISCID=34118614
DTITLE=Various Artist - Malhação - As 20 Mais
DYEAR=2005
DGENRE=Pop
TTITLE0=Benny Benassi - Satisfaction
TTITLE1=Felipe Dylon - Musa de Verão
TTITLE2=S.M.S. - Just a Little
TTITLE3=Jota Quest - Só Hoje
TTITLE4=Everything About You
TTITLE5=Michele Ornelas - Me Deixa
TTITLE6=Skter Boy
TTITLE7=Tô Nem Aí
TTITLE8=I Miss You
TTITLE9=Amanhã não se Sabe
TTITLE10=All The Tings The Said
TTITLE11=Quando o Sol se For
TTITLE12=Don't Tell Me
TTITLE13=O Amor é Mais
TTITLE14=Sent The Pain Below
TTITLE15=Tem que Valer
TTITLE16=Here Without You
TTITLE17=Você Sempre Será
TTITLE18=Pretty Baby
TTITLE19=Dias Atrás
EXTD=
EXTT0=
EXTT1=
EXTT2=
EXTT3=
EXTT4=
EXTT5=
EXTT6=
EXTT7=
EXTT8=
EXTT9=
EXTT10=
EXTT11=
EXTT12=
EXTT13=
EXTT14=
EXTT15=
EXTT16=
EXTT17=
EXTT18=
EXTT19=
PLAYORDER=
